<svg width="24" height="24" viewBox="0 0 24 24" fill="none" xmlns="http://www.w3.org/2000/svg">
<rect width="24" height="24" fill="#1E1E1E"/>
<g id="tabler:arrow-big-right-filled">
<path id="Vector" d="M12.089 3.63381C11.7612 3.80152 11.4861 4.05645 11.294 4.37052C11.1018 4.6846 11.0001 5.04562 11 5.41381L10.999 7.99981H4C3.46957 7.99981 2.96086 8.21052 2.58579 8.58559C2.21071 8.96067 2 9.46937 2 9.99981V13.9998L2.005 14.1498C2.04284 14.653 2.26947 15.1232 2.63945 15.4663C3.00943 15.8094 3.49542 16 4 15.9998L10.999 15.9988L11 18.5858C11.0001 18.9813 11.1174 19.3679 11.3372 19.6967C11.557 20.0255 11.8693 20.2818 12.2347 20.4332C12.6001 20.5845 13.0022 20.6241 13.3901 20.547C13.778 20.4698 14.1343 20.2794 14.414 19.9998L21 13.4138C21.3749 13.0387 21.5856 12.5301 21.5856 11.9998C21.5856 11.4695 21.3749 10.9609 21 10.5858L14.414 3.99981C14.1343 3.71994 13.7779 3.52932 13.3898 3.45207C13.0018 3.37481 12.5995 3.4144 12.234 3.56581L12.089 3.63381Z" fill="black"/>
</g>
</svg>
