<svg width="24" height="24" viewBox="0 0 24 24" fill="none" xmlns="http://www.w3.org/2000/svg">
<rect width="24" height="24" fill="#1E1E1E"/>
<g id="tabler:arrow-big-right-line-filled">
<path id="Vector" d="M12.089 3.63381C11.7612 3.80152 11.4861 4.05645 11.294 4.37052C11.1018 4.6846 11.0001 5.04562 11 5.41381L10.999 7.99981H6C5.73478 7.99981 5.48043 8.10516 5.29289 8.2927C5.10536 8.48024 5 8.73459 5 8.99981V14.9998L5.007 15.1168C5.03566 15.3601 5.15259 15.5843 5.33563 15.7471C5.51866 15.9098 5.75507 15.9998 6 15.9998L10.999 15.9988L11 18.5858C11.0001 18.9813 11.1174 19.3679 11.3372 19.6967C11.557 20.0255 11.8693 20.2818 12.2347 20.4332C12.6001 20.5845 13.0022 20.6241 13.3901 20.547C13.778 20.4698 14.1343 20.2794 14.414 19.9998L21 13.4138C21.3749 13.0387 21.5856 12.5301 21.5856 11.9998C21.5856 11.4695 21.3749 10.9609 21 10.5858L14.414 3.99981C14.1343 3.71994 13.7779 3.52932 13.3898 3.45207C13.0018 3.37481 12.5995 3.4144 12.234 3.56581L12.089 3.63381ZM3 7.99981C3.24493 7.99984 3.48134 8.08976 3.66437 8.25252C3.84741 8.41528 3.96434 8.63955 3.993 8.88281L4 8.99981V14.9998C3.99972 15.2547 3.90212 15.4998 3.72715 15.6852C3.55218 15.8705 3.31305 15.982 3.05861 15.997C2.80416 16.0119 2.55362 15.9291 2.35817 15.7655C2.16271 15.602 2.0371 15.3699 2.007 15.1168L2 14.9998V8.99981C2 8.73459 2.10536 8.48024 2.29289 8.2927C2.48043 8.10516 2.73478 7.99981 3 7.99981Z" fill="black"/>
</g>
</svg>
