<svg width="32" height="32" viewBox="0 0 32 32" fill="none" xmlns="http://www.w3.org/2000/svg">
<g clip-path="url(#clip0_5_2)">
<rect width="32" height="32" fill="#3AFF33"/>
<path d="M25.9238 0.037958C27.5326 0.598783 28.4225 8.42977 28.8086 14.3856L32 14.0009C31.9997 15.6854 30.9481 18.231 29.9902 20.1532C29.9383 25.436 25.4143 30.3581 19.0273 31.6512C12.8161 32.9088 6.89022 30.3203 4.63477 25.7196C2.17485 24.6895 0.402554 22.4246 0.0371094 19.7255L3.01172 19.1005C1.98215 16.3537 1 13.0107 1 10.4716C1.00031 7.37784 5.36755 9.7247 9.04688 12.3641C10.6519 11.2712 12.5511 10.4532 14.6504 10.0282C16.9431 9.56416 19.1972 9.62469 21.2422 10.1161C21.9837 5.33361 24.291 -0.529419 25.9238 0.037958Z" fill="#171925"/>
<path d="M25.691 16.6628C27.2794 16.2942 28.8503 16.1219 30.2681 16.2879C28.8623 20.4784 24.3045 27.4185 15.6918 20.8659C16.6675 20.3047 18.0555 19.5534 19.6522 18.818C20.3855 20.5241 21.8021 21.5912 22.8685 22.0883C23.1259 22.2082 23.4274 22.1873 23.6595 22.0235C25.2791 20.8802 25.7096 18.5979 25.691 16.6628Z" fill="white"/>
<path d="M1.67945 20.7488C2.87339 20.5654 3.99213 20.4405 5.03308 20.3605C5.79972 22.2646 7.09307 23.51 8.09596 24.1404C8.39089 24.3256 8.77184 24.3038 9.02755 24.0674C9.94812 23.216 10.4274 21.8452 10.6419 20.3717C12.5299 20.5495 13.8067 20.8843 14.4232 21.1542C8.1202 27.9553 3.30124 23.7179 1.67945 20.7488Z" fill="white"/>
</g>
<defs>
<clipPath id="clip0_5_2">
<rect width="32" height="32" fill="white"/>
</clipPath>
</defs>
</svg>
